<?xml version="1.0" encoding="UTF-8" standalone="no"?>
<!DOCTYPE svg PUBLIC "-//W3C//DTD SVG 1.1//EN"
 "http://www.w3.org/Graphics/SVG/1.1/DTD/svg11.dtd">
<!-- Generated by graphviz version 2.46.0 (20210118.1747)
 -->
<!-- Pages: 1 -->
<svg width="655pt" height="476pt"
 viewBox="0.00 0.00 654.50 476.00" xmlns="http://www.w3.org/2000/svg" xmlns:xlink="http://www.w3.org/1999/xlink">
<g id="graph0" class="graph" transform="scale(1 1) rotate(0) translate(4 472)">
<polygon fill="white" stroke="transparent" points="-4,4 -4,-472 650.5,-472 650.5,4 -4,4"/>
<!-- 7089421879891739210 -->
<g id="node1" class="node">
<title>7089421879891739210</title>
<polygon fill="none" stroke="black" points="338,-468 180,-468 180,-432 338,-432 338,-468"/>
<text text-anchor="middle" x="259" y="-445" font-family="Helvetica,sans-Serif" font-size="20.00">Max(Projection)</text>
</g>
<!-- &#45;8858263198032278235 -->
<g id="node2" class="node">
<title>&#45;8858263198032278235</title>
<polygon fill="none" stroke="black" points="392,-396 126,-396 126,-360 392,-360 392,-396"/>
<text text-anchor="middle" x="259" y="-373" font-family="Helvetica,sans-Serif" font-size="20.00">Projection(Assign, n_steps)</text>
</g>
<!-- &#45;8858263198032278235&#45;&gt;7089421879891739210 -->
<g id="edge1" class="edge">
<title>&#45;8858263198032278235&#45;&gt;7089421879891739210</title>
<path fill="none" stroke="black" d="M259,-396.3C259,-404.02 259,-413.29 259,-421.89"/>
<polygon fill="black" stroke="black" points="255.5,-421.9 259,-431.9 262.5,-421.9 255.5,-421.9"/>
</g>
<!-- &#45;3306475670505814538 -->
<g id="node3" class="node">
<title>&#45;3306475670505814538</title>
<polygon fill="none" stroke="black" points="518,-324 0,-324 0,-288 518,-288 518,-324"/>
<text text-anchor="middle" x="259" y="-301" font-family="Helvetica,sans-Serif" font-size="20.00">Assign(ArrowStringConversion, submitted, ToDatetime)</text>
</g>
<!-- &#45;3306475670505814538&#45;&gt;&#45;8858263198032278235 -->
<g id="edge2" class="edge">
<title>&#45;3306475670505814538&#45;&gt;&#45;8858263198032278235</title>
<path fill="none" stroke="black" d="M259,-324.3C259,-332.02 259,-341.29 259,-349.89"/>
<polygon fill="black" stroke="black" points="255.5,-349.9 259,-359.9 262.5,-349.9 255.5,-349.9"/>
</g>
<!-- 2739115945317094609 -->
<g id="node4" class="node">
<title>2739115945317094609</title>
<polygon fill="none" stroke="black" points="493.5,-252 268.5,-252 268.5,-216 493.5,-216 493.5,-252"/>
<text text-anchor="middle" x="381" y="-229" font-family="Helvetica,sans-Serif" font-size="20.00">ToDatetime(Projection)</text>
</g>
<!-- 2739115945317094609&#45;&gt;&#45;3306475670505814538 -->
<g id="edge3" class="edge">
<title>2739115945317094609&#45;&gt;&#45;3306475670505814538</title>
<path fill="none" stroke="black" d="M351.16,-252.12C335.06,-261.36 315,-272.87 297.71,-282.79"/>
<polygon fill="black" stroke="black" points="295.89,-279.8 288.96,-287.81 299.37,-285.87 295.89,-279.8"/>
</g>
<!-- 1168803300019539913 -->
<g id="node5" class="node">
<title>1168803300019539913</title>
<polygon fill="none" stroke="black" points="646.5,-180 217.5,-180 217.5,-144 646.5,-144 646.5,-180"/>
<text text-anchor="middle" x="432" y="-157" font-family="Helvetica,sans-Serif" font-size="20.00">Projection(ArrowStringConversion, submitted)</text>
</g>
<!-- 1168803300019539913&#45;&gt;2739115945317094609 -->
<g id="edge5" class="edge">
<title>1168803300019539913&#45;&gt;2739115945317094609</title>
<path fill="none" stroke="black" d="M419.39,-180.3C413.4,-188.53 406.12,-198.52 399.52,-207.58"/>
<polygon fill="black" stroke="black" points="396.52,-205.75 393.46,-215.9 402.18,-209.87 396.52,-205.75"/>
</g>
<!-- &#45;3075691718865516118 -->
<g id="node6" class="node">
<title>&#45;3075691718865516118</title>
<polygon fill="none" stroke="black" points="523.5,-108 96.5,-108 96.5,-72 523.5,-72 523.5,-108"/>
<text text-anchor="middle" x="310" y="-85" font-family="Helvetica,sans-Serif" font-size="20.00">ArrowStringConversion(FromMapProjectable)</text>
</g>
<!-- &#45;3075691718865516118&#45;&gt;&#45;3306475670505814538 -->
<g id="edge4" class="edge">
<title>&#45;3075691718865516118&#45;&gt;&#45;3306475670505814538</title>
<path fill="none" stroke="black" d="M251.93,-108.04C234.77,-116.08 217.94,-127.63 208,-144 181.45,-187.71 214.75,-246.59 238.67,-279.68"/>
<polygon fill="black" stroke="black" points="236.03,-281.99 244.81,-287.91 241.64,-277.8 236.03,-281.99"/>
</g>
<!-- &#45;3075691718865516118&#45;&gt;1168803300019539913 -->
<g id="edge6" class="edge">
<title>&#45;3075691718865516118&#45;&gt;1168803300019539913</title>
<path fill="none" stroke="black" d="M339.84,-108.12C355.94,-117.36 376,-128.87 393.29,-138.79"/>
<polygon fill="black" stroke="black" points="391.63,-141.87 402.04,-143.81 395.11,-135.8 391.63,-141.87"/>
</g>
<!-- &#45;7470324992516338211 -->
<g id="node7" class="node">
<title>&#45;7470324992516338211</title>
<polygon fill="none" stroke="black" points="412.5,-36 207.5,-36 207.5,0 412.5,0 412.5,-36"/>
<text text-anchor="middle" x="310" y="-13" font-family="Helvetica,sans-Serif" font-size="20.00">FromMapProjectable</text>
</g>
<!-- &#45;7470324992516338211&#45;&gt;&#45;3075691718865516118 -->
<g id="edge7" class="edge">
<title>&#45;7470324992516338211&#45;&gt;&#45;3075691718865516118</title>
<path fill="none" stroke="black" d="M310,-36.3C310,-44.02 310,-53.29 310,-61.89"/>
<polygon fill="black" stroke="black" points="306.5,-61.9 310,-71.9 313.5,-61.9 306.5,-61.9"/>
</g>
</g>
</svg>
